<svg width="30" height="28" viewBox="0 0 30 28" fill="none" xmlns="http://www.w3.org/2000/svg">
<path d="M10 6.70801C9.4875 6.70801 9.0625 6.31134 9.0625 5.83301V2.33301C9.0625 1.85467 9.4875 1.45801 10 1.45801C10.5125 1.45801 10.9375 1.85467 10.9375 2.33301V5.83301C10.9375 6.31134 10.5125 6.70801 10 6.70801Z" fill="#747474"/>
<path d="M20 6.70801C19.4875 6.70801 19.0625 6.31134 19.0625 5.83301V2.33301C19.0625 1.85467 19.4875 1.45801 20 1.45801C20.5125 1.45801 20.9375 1.85467 20.9375 2.33301V5.83301C20.9375 6.31134 20.5125 6.70801 20 6.70801Z" fill="#747474"/>
<path d="M10.625 16.9167C10.4625 16.9167 10.3 16.8817 10.15 16.8234C9.9875 16.7651 9.8625 16.6834 9.7375 16.5784C9.5125 16.3567 9.375 16.065 9.375 15.75C9.375 15.5984 9.4125 15.4467 9.475 15.3067C9.5375 15.1667 9.625 15.0384 9.7375 14.9217C9.8625 14.8167 9.9875 14.735 10.15 14.6767C10.6 14.5017 11.1625 14.595 11.5125 14.9217C11.7375 15.1434 11.875 15.4467 11.875 15.75C11.875 15.82 11.8625 15.9017 11.85 15.9834C11.8375 16.0534 11.8125 16.1234 11.775 16.1934C11.75 16.2634 11.7125 16.3334 11.6625 16.4034C11.625 16.4617 11.5625 16.52 11.5125 16.5784C11.275 16.7884 10.95 16.9167 10.625 16.9167Z" fill="#747474"/>
<path d="M15 16.917C14.8375 16.917 14.675 16.882 14.525 16.8237C14.3625 16.7654 14.2375 16.6837 14.1125 16.5787C13.8875 16.357 13.75 16.0653 13.75 15.7503C13.75 15.5987 13.7875 15.447 13.85 15.307C13.9125 15.167 14 15.0387 14.1125 14.922C14.2375 14.817 14.3625 14.7353 14.525 14.677C14.975 14.4903 15.5375 14.5954 15.8875 14.922C16.1125 15.1437 16.25 15.447 16.25 15.7503C16.25 15.8203 16.2375 15.902 16.225 15.9837C16.2125 16.0537 16.1875 16.1237 16.15 16.1937C16.125 16.2637 16.0875 16.3337 16.0375 16.4037C16 16.462 15.9375 16.5203 15.8875 16.5787C15.65 16.7887 15.325 16.917 15 16.917Z" fill="#747474"/>
<path d="M19.375 16.917C19.2125 16.917 19.05 16.882 18.9 16.8237C18.7375 16.7654 18.6125 16.6837 18.4875 16.5787C18.4375 16.5203 18.3875 16.462 18.3375 16.4037C18.2875 16.3337 18.25 16.2637 18.225 16.1937C18.1875 16.1237 18.1625 16.0537 18.15 15.9837C18.1375 15.902 18.125 15.8203 18.125 15.7503C18.125 15.447 18.2625 15.1437 18.4875 14.922C18.6125 14.817 18.7375 14.7353 18.9 14.677C19.3625 14.4903 19.9125 14.5954 20.2625 14.922C20.4875 15.1437 20.625 15.447 20.625 15.7503C20.625 15.8203 20.6125 15.902 20.6 15.9837C20.5875 16.0537 20.5625 16.1237 20.525 16.1937C20.5 16.2637 20.4625 16.3337 20.4125 16.4037C20.375 16.462 20.3125 16.5203 20.2625 16.5787C20.025 16.7887 19.7 16.917 19.375 16.917Z" fill="#747474"/>
<path d="M10.625 21.0004C10.4625 21.0004 10.3 20.9654 10.15 20.9071C10 20.8487 9.8625 20.767 9.7375 20.662C9.5125 20.4404 9.375 20.137 9.375 19.8337C9.375 19.682 9.4125 19.5304 9.475 19.3904C9.5375 19.2387 9.625 19.1104 9.7375 19.0054C10.2 18.5737 11.05 18.5737 11.5125 19.0054C11.7375 19.2271 11.875 19.5304 11.875 19.8337C11.875 20.137 11.7375 20.4404 11.5125 20.662C11.275 20.872 10.95 21.0004 10.625 21.0004Z" fill="#747474"/>
<path d="M15 21.0004C14.675 21.0004 14.35 20.872 14.1125 20.662C13.8875 20.4404 13.75 20.137 13.75 19.8337C13.75 19.682 13.7875 19.5304 13.85 19.3904C13.9125 19.2387 14 19.1104 14.1125 19.0054C14.575 18.5737 15.425 18.5737 15.8875 19.0054C16 19.1104 16.0875 19.2387 16.15 19.3904C16.2125 19.5304 16.25 19.682 16.25 19.8337C16.25 20.137 16.1125 20.4404 15.8875 20.662C15.65 20.872 15.325 21.0004 15 21.0004Z" fill="#747474"/>
<path d="M19.375 21.0004C19.05 21.0004 18.725 20.872 18.4875 20.662C18.375 20.557 18.2875 20.4287 18.225 20.2771C18.1625 20.1371 18.125 19.9854 18.125 19.8337C18.125 19.6821 18.1625 19.5304 18.225 19.3904C18.2875 19.2387 18.375 19.1104 18.4875 19.0054C18.775 18.7371 19.2125 18.6087 19.6125 18.6904C19.7 18.702 19.775 18.7254 19.85 18.7604C19.925 18.7837 20 18.8187 20.075 18.8654C20.1375 18.9004 20.2 18.9587 20.2625 19.0054C20.4875 19.2271 20.625 19.5304 20.625 19.8337C20.625 20.1371 20.4875 20.4404 20.2625 20.662C20.025 20.872 19.7 21.0004 19.375 21.0004Z" fill="#747474"/>
<path d="M25.625 11.4795H4.375C3.8625 11.4795 3.4375 11.0828 3.4375 10.6045C3.4375 10.1262 3.8625 9.72949 4.375 9.72949H25.625C26.1375 9.72949 26.5625 10.1262 26.5625 10.6045C26.5625 11.0828 26.1375 11.4795 25.625 11.4795Z" fill="#747474"/>
<path d="M20 26.5413H10C5.4375 26.5413 2.8125 24.0913 2.8125 19.833V9.91634C2.8125 5.65801 5.4375 3.20801 10 3.20801H20C24.5625 3.20801 27.1875 5.65801 27.1875 9.91634V19.833C27.1875 24.0913 24.5625 26.5413 20 26.5413ZM10 4.95801C6.425 4.95801 4.6875 6.57967 4.6875 9.91634V19.833C4.6875 23.1697 6.425 24.7913 10 24.7913H20C23.575 24.7913 25.3125 23.1697 25.3125 19.833V9.91634C25.3125 6.57967 23.575 4.95801 20 4.95801H10Z" fill="#747474"/>
</svg>
